<?xml version="1.0" encoding="utf-8"?>
<!-- Generator: Adobe Illustrator 27.3.1, SVG Export Plug-In . SVG Version: 6.00 Build 0)  -->
<svg version="1.1" id="Calque_1" xmlns="http://www.w3.org/2000/svg" xmlns:xlink="http://www.w3.org/1999/xlink" x="0px" y="0px"
	 viewBox="0 0 207.5 92" style="enable-background:new 0 0 207.5 92;" xml:space="preserve">
<path d="M46.3,2.2C40.5,3.8,35,5.8,29.9,8.7c-5.1,2.9-9.7,6.4-13.6,10.7c0.1,0.1,0.1,0.1,0.2,0.2c0.4-0.3,0.8-0.6,1.2-1
	C24.5,12,32.5,7.5,41.5,4.7c2.7-0.8,5.5-1.1,8.3-1.6c1.6-0.3,3.2-0.5,4.8-0.5c4,0,8.1,0.1,12,1.1c6.7,1.7,13.1,4.2,17.9,9.5
	c2.1,2.3,3.9,4.9,5.1,7.9c0.5,1.3,0.4,1.5-1.1,1.5c-1.3,0-2.7,0.1-4,0.1c-0.3,0-0.8-0.3-0.9-0.6c-1.5-4.2-4.2-7.4-7.8-10
	C71,8.5,65.6,6.9,59.8,6.4c-12.7-1.1-24.1,2.2-34,10.3c-1.1,0.9-2.1,1.7-3.1,2.7c-0.7,0.7-1,1.8-1.7,2.5c-2.3,2.2-4.2,4.8-5.7,7.5
	c-2.5,4.5-4.6,9.2-5.4,14.4c-0.9,5.9-1.6,11.9,0,17.9c0.9,3.6,2.4,6.9,4.5,10c1.6,2.5,3.3,4.8,5.7,6.5c2.4,1.8,5.2,2.7,7.8,4.1
	c2.9,1.5,6,1.6,9.1,2c3.9,0.5,7.9,0.5,11.8-0.1c7.7-1.2,14.8-3.9,20.9-8.8c2.6-2.1,4.9-4.5,6.9-7.1c0.1-0.1,0.2-0.3,0.3-0.5
	c-0.8-0.5-1.3,0.1-1.8,0.5c-1.3,1-2.5,2.1-3.7,3.1c-0.2,0.2-0.4,0.3-0.9,0.6c0.1-0.4,0.1-0.6,0.2-0.8c1.2-1.8,2.5-3.5,3.6-5.3
	c0.5-0.8,1.3-0.8,2-0.8c3,0,5.9,0,8.9,0c0.2,0,0.5,0.1,1,0.1c-1.2,1.8-2.3,3.4-3.5,5.2c0.5-0.4,0.9-0.7,1.3-1
	c0.1,0.1,0.2,0.1,0.3,0.2c-0.5,0.8-1,1.6-1.6,2.2C75.9,79.7,67.2,84.8,57,87.8c-6.9,2-13.8,2.7-20.9,1.9c-5.3-0.6-10.4-2.1-15.3-4.1
	c-3-1.2-5.8-2.7-8.2-4.9C7.1,75.7,3.1,69.7,1.8,62.2C-0.6,48.7,2.2,36.2,10,25c2.1-3.1,4.5-6.1,7.2-8.6c3-2.7,6.4-4.9,9.8-7.1
	C32.7,5.8,38.9,3.5,45.4,2C45.6,2,45.7,2,45.9,2C45.9,2,46,2,46.3,2.2z"/>
<path d="M89,39.1c0.2-1.8,0.2-1.8,1.8-1.8c0.8,0,1.6,0,2.3,0c0.8-0.1,1.1,0.2,1.1,1.1c0,6,0,12,0,17.9c0,2.5,0,5,0,7.5
	c0,0.8-0.2,1.2-1.1,1.1c-1-0.1-2.1,0-3.1,0c-0.7,0-1-0.2-1-1c0-3,0-6,0-9c0-0.2,0-0.4,0-0.7c-0.3,0.1-0.5,0.2-0.6,0.3
	c-4.4,3.5-11.7,2-13.6-5c-1.2-4.1,0.3-8.6,3.6-11.1c2.8-2,6.4-2.2,9.3-0.3C88.1,38.5,88.5,38.8,89,39.1z M89.1,46.6
	c-0.2-0.8-0.3-1.5-0.5-2.3c-0.6-2-2.8-3.3-4.9-3c-3.1,0.6-4.3,3-4.1,5.6c0.1,1.9,0.8,3.5,2.6,4.4C85.7,52.9,89,50.5,89.1,46.6z"/>
<path d="M58.7,39c1.6-1.3,3.3-2,5.3-2c3.9,0,6.8,2.4,7.4,6.2c0.2,1.5,0.2,3,0.2,4.4c0,2.5,0,5,0,7.4c0,0.8-0.3,1-1,1
	c-1.1-0.1-2.1,0-3.2,0c-0.7,0-1-0.2-1-1c0-3.3,0-6.5,0-9.8c0-1.9-0.9-3.3-2.4-3.8c-2.6-0.9-5.2,0.7-5.3,3.5
	c-0.1,3.4-0.1,6.7-0.2,10.1c0,0.7-0.1,1-0.9,1c-1.1,0-2.1,0-3.2,0.1c-0.7,0-0.9-0.2-0.9-0.9c0-5.7,0-11.4,0-17.1c0-0.7,0.3-1,1-1
	c1,0,2,0.1,3,0c0.9-0.1,1.3,0.3,1.2,1.2C58.6,38.5,58.6,38.6,58.7,39z"/>
<path d="M49.2,46.7c0,2.8,0,5.5,0,8.3c0,1.1-0.1,1.2-1.2,1.2c-1,0-2-0.1-3-0.1c-0.6,0-0.9-0.2-0.9-0.8c0-4,0-8,0-12
	c0-1.7,0-3.3-0.1-5c0-0.8,0.3-1,1-1c1.2,0,2.4,0,3.6,0.2c0.2,0,0.5,0.6,0.5,0.9c0,2.8,0,5.6,0,8.4C49.2,46.7,49.2,46.7,49.2,46.7z"
	/>
<path d="M115.2,49.7c0,0.4,0,0.7-0.1,1.1c-0.8,2.9-3.5,5.2-6.5,5.4c-1.4,0.1-3,0.1-4.3-0.3c-3.6-0.9-5.5-3.6-6-7.1
	c-0.5-2.9-0.1-5.7,1.8-8.1c2.4-3.1,5.7-3.8,9.3-3c3.3,0.7,5.2,3,6,6.2c0.2,0.9,0.2,2,0.2,3c0,0.2-0.4,0.5-0.6,0.5
	c-0.4,0.1-0.8,0-1.2,0c-4.4,0-8.9,0-13.3,0c-1.2,0-1.3,0.1-1.1,1.4c0.7,4.5,4.3,7.1,9,6.5c3.1-0.4,5.4-1.9,6.2-5
	c0.1-0.2,0.2-0.5,0.4-0.7C114.9,49.6,115.1,49.6,115.2,49.7z M107.8,46.4C107.8,46.4,107.8,46.4,107.8,46.4c2-0.1,3.9-0.1,5.9,0
	c0.6,0,0.8-0.2,0.8-0.8c-0.1-2.1-0.7-4-2.4-5.3c-1.8-1.6-4-1.9-6.3-1.7c-3.7,0.3-6.5,3.3-6.6,6.9c0,0.7,0.2,1,1,1
	C102.7,46.4,105.2,46.4,107.8,46.4z"/>
<path d="M168.7,49.7c0,0.4,0,0.8-0.1,1.1c-1,3.2-3.3,4.9-6.4,5.3c-2.5,0.4-5,0.1-7.1-1.5c-2-1.5-3-3.5-3.4-5.9
	c-0.4-2.8,0-5.4,1.7-7.8c1.8-2.6,5.4-4,8.8-3.4c3.5,0.7,5.7,2.8,6.6,6.3c0.2,0.8,0.1,1.8,0.2,2.7c0.1,0.7-0.3,0.9-1,0.9
	c-3.8,0-7.5,0-11.3,0c-1.1,0-2.2,0-3.3,0c-0.6,0-0.8,0.2-0.7,0.8c0.4,3.1,1.7,5.5,4.8,6.6c3,1,5.9,0.8,8.5-1.3
	c0.8-0.7,1.3-1.9,1.9-2.8c0.2-0.4,0.4-0.8,0.6-1.2C168.5,49.6,168.6,49.7,168.7,49.7z M161.2,46.4C161.2,46.4,161.2,46.4,161.2,46.4
	c1.9,0,3.8-0.1,5.7,0c0.8,0,1-0.2,1-0.9c-0.1-3.6-2.2-6.1-6-6.8c-4.5-0.8-8.5,1.3-9.2,6.2c-0.2,1.4-0.1,1.6,1.3,1.6
	C156.4,46.4,158.8,46.4,161.2,46.4z"/>
<path d="M174,37.6c0.9,0.9,0.1,2.1,0.6,3.3c0.3-0.3,0.5-0.6,0.7-0.9c2.8-3.6,10.1-4,12.5,1.3c0.6,1.4,0.9,3,0.9,4.5
	c0.1,3.1,0.1,6.2,0,9.3c0,0.3-0.3,0.6-0.4,0.9c-0.2-0.3-0.5-0.6-0.5-0.9c0-3.2,0-6.3-0.1-9.5c0-1-0.1-1.9-0.3-2.8
	c-0.6-2.6-2.6-4.2-5.2-4.4c-2.4-0.2-4.6,0.3-6.2,2.3c-1.3,1.6-1.5,3.5-1.6,5.4c0,2.9,0,5.9,0,8.8c0,0.2,0.1,0.5,0,0.6
	c-0.1,0.2-0.4,0.4-0.6,0.6c-0.2-0.2-0.5-0.4-0.5-0.6c-0.1-1.3-0.1-2.5-0.1-3.8c0-4.3,0.1-8.7,0.2-13c0-0.4,0.2-0.7,0.2-1.1
	C173.8,37.6,173.9,37.6,174,37.6z"/>
<path d="M131.2,43.1c-0.2-0.3-0.4-0.6-0.5-1c-1.2-3.6-5.8-4.9-8.8-2.6c-2.1,1.6-1.8,4.7,0.7,5.8c1.3,0.6,2.7,0.9,4,1.4
	c0.7,0.2,1.4,0.4,2.1,0.7c1.6,0.6,2.8,1.5,3,3.4c0.2,2-0.6,3.5-2.3,4.6c-2.5,1.6-6.8,1.2-8.9-0.9c-0.6-0.6-1-1.5-1.4-2.4
	c-0.1-0.2,0-0.6,0.1-0.9c0.1,0,0.2,0,0.3-0.1c0.2,0.3,0.4,0.5,0.5,0.8c0.6,2.1,2.2,3,4.2,3.3c1.5,0.2,3,0.3,4.4-0.4
	c1.5-0.7,2.2-1.9,2.2-3.6c0-1.6-1-2.4-2.3-2.8c-1.7-0.6-3.4-1-5.1-1.6c-0.9-0.3-1.8-0.8-2.5-1.4c-1.9-1.6-1.9-4.5-0.2-6.3
	c2.7-2.8,8.1-2.2,10.2,1C131.4,41.1,131.8,42,131.2,43.1z"/>
<path d="M147.4,43.1c-0.2-0.3-0.4-0.6-0.5-0.9c-0.8-4.3-6.9-4.5-9.1-2.4c-1.5,1.4-1.4,3.9,0.2,5c1.1,0.7,2.3,1.1,3.6,1.5
	c1.2,0.5,2.6,0.7,3.8,1.3c3.1,1.4,3.5,4.9,1,7.2c-2.7,2.5-9.6,1.7-10.9-2.3c0-0.1-0.2-0.3-0.1-0.4c0-0.3,0.1-0.5,0.2-0.8
	c0.2,0.2,0.4,0.3,0.5,0.5c1.4,3.4,6.1,4.7,9.2,2.7c1.3-0.9,1.8-2.1,1.7-3.6c-0.1-1.3-1-2.1-2.1-2.5c-1.5-0.5-3.1-0.9-4.6-1.4
	c-1-0.4-2.1-0.8-2.9-1.4c-2-1.5-2.1-4.4-0.5-6.3c2.6-2.9,8-2.5,10.2,0.6c0.6,0.9,1,1.8,0.8,2.9C147.6,43,147.5,43.1,147.4,43.1z"/>
<path d="M193.5,51.2c0.2,0.3,0.4,0.5,0.5,0.8c0.6,2,2.1,3,4,3.3c1.6,0.2,3.2,0.3,4.7-0.4c1.5-0.7,2.2-2,2.2-3.6
	c0-1.5-1.1-2.3-2.4-2.8c-1.4-0.5-2.9-0.9-4.4-1.3c-0.6-0.2-1.2-0.4-1.8-0.7c-3.4-1.6-3.8-5.5-0.8-7.8c2.5-1.9,6.9-1.6,8.9,0.8
	c0.6,0.7,0.9,1.8,1.3,2.7c0.1,0.2-0.2,0.5-0.3,0.8c-0.2-0.2-0.4-0.3-0.6-0.5c-0.1-0.2-0.1-0.5-0.3-0.8c-0.3-0.6-0.6-1.3-1.1-1.8
	c-1.8-1.9-6.2-1.7-7.9,0.2c-1.5,1.7-1.1,4.3,1.1,5.3c1.3,0.6,2.8,1,4.2,1.5c0.8,0.3,1.6,0.5,2.3,0.8c3.3,1.4,3.8,5.4,0.9,7.5
	c-2.6,1.9-5.4,1.6-8.1,0.3c-1.4-0.6-2.2-1.7-2.6-3.1c-0.1-0.3-0.1-0.7-0.1-1C193.2,51.2,193.4,51.2,193.5,51.2z"/>
<path d="M46.7,35.4c-1.8,0-3-1.3-3-3.1c0-1.6,1.3-2.8,3-2.7c1.7,0,3.1,1.4,3.1,3.1C49.8,34.1,48.3,35.4,46.7,35.4z"/>
<path d="M156,67.3c0-1.2,0-2.5,0-3.7c0-0.2,0.4-0.6,0.6-0.6c0.7-0.1,1.4,0,2.2,0c0.5,0,1.1,0.2,1.6,0c1.8-0.5,2.6,0,2.8,1.8
	c0.1,0.8,0,1.7,0,2.5c-0.1,0-0.2,0-0.3,0c0-0.2-0.1-0.4-0.1-0.6c-0.1-0.7-0.1-1.5-0.1-2.2c0-0.8-0.4-1.3-1.2-1.3
	c-0.9,0-1.7,0.6-1.8,1.4c-0.1,0.7,0,1.4,0,2.1c0,0.2-0.1,0.4-0.1,0.6c-0.1,0-0.2,0-0.3,0c0-0.4-0.1-0.8-0.1-1.3c0-0.5-0.1-0.9,0-1.4
	c0.1-0.7,0.2-1.3-0.8-1.5c-1.2-0.2-1.6,0-1.8,1.1c-0.1,0.6-0.1,1.3-0.1,1.9c0,0.3,0,0.7,0.1,1C156.3,67.2,156.2,67.3,156,67.3z"/>
<path d="M191.3,67.1c-0.1-1-0.2-1.9-0.3-2.9c0-0.8-0.6-1-1.2-1c-0.6,0-1.4,0-1.4,1c-0.1,1-0.1,2.1-0.2,3.1c-0.1,0-0.2,0-0.3,0
	c0-0.9,0-1.8,0-2.6c0-0.6-0.2-1-0.8-1.2c-1.5-0.5-2.3,0-2.3,1.6c0,0.7,0,1.4,0,2c0,0-0.1,0.1-0.2,0.2c-0.1-0.3-0.2-0.5-0.2-0.7
	c0-0.7-0.1-1.4,0-2.1c0-1.3,0.7-1.9,2.1-1.6c1.1,0.2,2.1,0.5,3.2-0.1c0.7-0.4,1.6,0.1,1.8,0.9c0.2,1.1,0.2,2.2,0.3,3.3
	C191.6,67.1,191.4,67.1,191.3,67.1z"/>
<path d="M183.3,65.4c0,1.5-0.7,2.2-2.1,2.2c-1.4,0-2.2-1-2.2-2.8c0-1.3,0.7-2,2.1-2C182.9,62.8,183.3,63.3,183.3,65.4z M181.2,65.1
	C181.2,65.1,181.2,65.1,181.2,65.1c0.3,0,0.6,0.1,0.9,0c0.3-0.1,0.7-0.3,0.7-0.5c0-0.3-0.2-0.9-0.4-1c-0.6-0.2-1.3-0.4-1.9-0.2
	c-0.4,0.1-0.6,0.8-0.9,1.2c0.3,0.2,0.7,0.4,1,0.5C180.8,65.1,181,65.1,181.2,65.1z M181.2,67.2c0,0,0.1,0.1,0.1,0.1
	c0.5-0.3,1-0.5,1.5-0.8c0.2-0.1,0.3-0.5,0.2-0.6c-0.1-0.2-0.4-0.3-0.6-0.3c-0.6-0.1-1.1-0.1-1.7-0.1c-0.3,0-0.6,0.2-1,0.3
	c0.2,0.4,0.4,0.8,0.6,1.1C180.5,67.1,180.9,67.1,181.2,67.2z"/>
<path d="M135.6,65.9c-0.2,1.1-0.9,1.5-1.7,1.8c-0.8,0.2-1.9-0.2-2.3-1c-0.5-1-0.7-2-0.1-3c0.6-1,1.7-1,2.7-0.8
	c0.4,0.1,1,0.5,1.1,0.9c0.5,1.1,0.2,1.6-1.1,1.7c-0.6,0-1.1,0-1.7,0c-0.3,0-0.7,0.2-0.8,0.3c-0.1,0.2,0.1,0.6,0.3,0.8
	c0.5,0.7,1.7,0.8,2.4,0.2C134.8,66.6,135.1,66.3,135.6,65.9z M133.3,65.1C133.3,65.1,133.3,65.1,133.3,65.1c0.3,0,0.6,0.1,0.9,0
	c0.3-0.1,0.7-0.2,0.7-0.4c0-0.4-0.1-1-0.3-1c-0.8-0.2-1.6-0.2-2.4-0.1c-0.3,0-0.5,0.7-0.7,1.1c0.4,0.2,0.7,0.3,1.1,0.5
	C132.8,65.1,133.1,65.1,133.3,65.1z"/>
<path d="M197,65.3c0,1.5-0.8,2.4-2,2.4c-1.4-0.1-2.4-1.1-2.3-2.6c0-1.6,0.8-2.3,2.5-2.2C196.5,62.9,197,63.7,197,65.3z M194.8,65.1
	C194.8,65.1,194.8,65.1,194.8,65.1c0.3,0,0.6,0,0.9,0c0.8-0.1,1.1-0.4,0.6-1c-0.3-0.4-0.9-0.8-1.3-0.7c-0.6,0-1.3,0.3-1.7,0.8
	c-0.5,0.5-0.2,0.9,0.6,1C194.2,65.1,194.5,65.1,194.8,65.1z M195.1,67.4c0.5-0.3,0.9-0.4,1.2-0.7c0.2-0.2,0.2-0.6,0.3-0.9
	c-0.3-0.1-0.6-0.2-0.9-0.2c-0.6,0-1.1,0-1.7,0c-0.2,0-0.6,0.1-0.6,0.2c-0.1,0.2,0,0.6,0.1,0.7C193.9,66.8,194.5,67.1,195.1,67.4z"/>
<path d="M118.7,65.9c-0.3,1.2-1.1,1.8-2.1,1.8c-1.2-0.1-2.2-1.1-2.3-2.3c-0.1-1.9,1.6-3.1,3.4-2.4c0.7,0.3,1,1,1.1,1.7
	c0,0.5-0.3,0.8-0.8,0.8c-0.8,0-1.6,0-2.4,0.1c-0.2,0-0.5,0.1-0.6,0.2c-0.1,0.2,0,0.5,0.1,0.7c0.6,0.9,2.1,1.1,2.9,0.3
	C118.2,66.5,118.4,66.2,118.7,65.9z M118.5,65.1c-0.2-1-0.5-1.6-1.3-1.7c-0.7-0.1-1.5,0.1-2.1,0.4c-0.5,0.3-0.5,1.2,0,1.2
	C116.3,65.1,117.4,65.1,118.5,65.1z"/>
<path d="M103,65.6c0.9,1.9,1.8,2,3.6,0.9c-0.1,0.7-1.2,1.3-2.1,1.1c-1.1-0.3-1.8-1.2-1.8-2.2c0-0.7,0.4-1.6,0.9-2.2
	c0.7-0.7,1.7-0.6,2.5-0.1c0.5,0.3,0.8,1,1,1.5c0.1,0.5-0.2,0.9-0.9,0.9C105.2,65.5,104.2,65.6,103,65.6z M104.8,65.1
	C104.8,65.1,104.8,65.1,104.8,65.1c0.4,0,0.8,0,1.1,0c0.3-0.1,0.7-0.2,0.7-0.4c0.1-0.3-0.1-0.7-0.3-0.9c-0.7-0.7-2.3-0.6-2.9,0.2
	c-0.2,0.2-0.2,0.6-0.3,0.9c0.3,0.1,0.6,0.2,0.9,0.2C104.2,65.1,104.5,65.1,104.8,65.1z"/>
<path d="M168.5,65c0,1.7-0.7,2.7-2.1,2.7c-1.3,0-2.2-1-2.2-2.6c0-1.6,0.7-2.3,2.4-2.3C167.9,62.8,168.5,63.5,168.5,65z M168.1,65
	c0-1.4-0.4-1.8-1.7-1.8c-1.2,0-1.8,0.6-1.8,1.7c0.1,1.7,0.5,2.2,1.8,2.2C167.6,67.2,168.1,66.5,168.1,65z"/>
<path d="M148.4,67.2c0-1.3-0.1-2.6,0.1-3.9c0.1-0.3,1.3-0.6,2-0.6c0.5,0,1.4,0.5,1.4,0.9c0.3,1.2,0.2,2.5,0.3,3.7
	c-0.1,0-0.3,0-0.4,0c0-0.3-0.1-0.5-0.1-0.8c0-0.7,0-1.4,0-2.1c0-0.7-0.3-1.2-1.1-1.3c-0.8-0.1-1.4,0.1-1.6,0.9
	c-0.2,0.7-0.1,1.5-0.2,2.2c0,0.3,0,0.7,0,1C148.6,67.2,148.5,67.2,148.4,67.2z"/>
<path d="M124.9,62.8c1.6-0.1,2.4,1.2,2.4,2.3c0.1,1.1-1.3,2.6-2.4,2.6c-1.2,0-2.5-1.2-2.4-2.4C122.7,63.6,122.9,62.8,124.9,62.8z
	 M124.9,63.2c-1.3,0-1.9,0.6-2,1.9c0,1.3,0.8,2.1,2.1,2.1c0.8,0,1.9-1.3,2-2.1C127,64.1,126,63.2,124.9,63.2z"/>
<path d="M197.9,67.1c0.1-1.2,0.1-2.5,0.2-3.7c0-0.1,0.1-0.2,0.1-0.2c1-0.1,2-0.4,2.9-0.2c0.8,0.1,0.9,1.1,1,1.8c0,0.8,0,1.6,0,2.4
	c-0.1,0-0.2,0-0.3,0c0-0.2-0.1-0.4-0.1-0.6c0-0.6,0-1.2-0.1-1.9c-0.1-0.8-0.1-1.5-1.2-1.5c-1.2,0-1.8,0.4-2,1.5
	c-0.1,0.4-0.1,0.8-0.1,1.2c0,0.4,0,0.8,0,1.2C198.2,67.1,198,67.1,197.9,67.1z"/>
<path d="M169.8,62.8c0.1,0.5,0.1,0.8,0.1,1.1c0,0.6,0,1.2,0.1,1.7c0.2,1.2,0.8,1.5,2,1.5c0.7,0,1.1-0.4,1.2-1c0.1-0.8,0-1.6,0.1-2.4
	c0-0.3,0.1-0.6,0.3-0.8c0,1.4,0,2.7,0,4.1c-0.8,0.2-1.5,0.6-2.3,0.6c-0.5,0-1-0.5-1.3-1C169.4,65.5,169.3,63.9,169.8,62.8z"/>
<path d="M143.2,66.4c-0.7-0.9-0.6-1.8,0-2.7c0.5-0.8,1.3-0.9,2.1-0.9c1,0,1.7,0.5,2,1.5c0.2,0.7,0,1-0.7,1.1
	c-0.9,0.1-1.7,0.2-2.6,0.2C143.4,65.6,143.2,65.8,143.2,66.4L143.2,66.4z M144,65.2c0.9-0.1,1.6-0.1,2.3-0.3c0.2,0,0.6-0.2,0.6-0.4
	c0-0.3-0.1-0.6-0.3-0.8c-0.7-0.7-2.2-0.8-2.9,0c-0.2,0.2-0.4,0.7-0.3,1C143.4,65,143.8,65.2,144,65.2z"/>
<path d="M107.8,66.6c0.6,0.2,1.2,0.5,1.7,0.5c0.3,0,0.7-0.3,0.8-0.6c0.1-0.2-0.2-0.7-0.5-0.9c-0.4-0.3-1-0.4-1.3-0.7
	c-0.3-0.4-0.4-1-0.4-1.5c0-0.2,0.7-0.5,1-0.5c0.7-0.1,1.3,0.1,1.8,0.7c0,0.1-0.1,0.2-0.1,0.3c-0.3-0.2-0.7-0.4-1-0.4
	c-0.4,0-0.8,0.2-1.3,0.3c0.2,0.4,0.4,0.9,0.7,1.3c0.2,0.2,0.6,0.2,0.9,0.3c0.6,0.2,0.8,0.7,0.7,1.3c-0.1,0.7-0.5,1-1.1,1
	C109,67.6,108.3,67.4,107.8,66.6z"/>
<path d="M203.3,62.1c0.6,0.4,1.2,0.7,1.7,1.1c-1.4-0.1-1.3,0.7-1.2,1.5c0,0.3,0,0.6,0,0.9c0,0.7,0.1,1.3,0.8,1.6
	c0.2,0.1,0.2,0.3,0.3,0.5c-0.8-0.2-1.4-0.7-1.5-1.6c-0.1-1-0.3-2.1-0.3-3.1C203,62.7,203.2,62.4,203.3,62.1z"/>
<path d="M120.1,61.8c0.5,0.6,0.9,1,1.2,1.4c-1.2,0.6-1,2.6-0.2,4.7c-0.2-0.3-0.6-0.5-0.7-0.8C119.9,65.3,119.8,63.6,120.1,61.8z"/>
<path d="M130.1,67.3c-0.5-0.8-0.4-5.4,0.1-5.9C130.2,63.3,130.5,65.3,130.1,67.3z"/>
<path d="M101.7,67.5c-1.8,0.5-2.3,0.1-2.3-1.6c0-1.4,0-2.7,0-4.1c0.1,0,0.2,0,0.3,0c0,0.4,0.1,0.7,0.1,1.1c0,1,0,2,0,3.1
	c0,0.9,0.3,1.4,1.3,1.4C101.2,67.3,101.4,67.4,101.7,67.5z"/>
<path d="M137.2,64.9c0.5,0.1,1,0.2,1.5,0.4c0.9,0.3,1,1.5,0.3,2.1c-0.7,0.6-1.9,0.3-2.4-0.6c0.5,0.2,1,0.4,1.5,0.4
	c0.3,0,0.6-0.4,1-0.6c-0.2-0.3-0.4-0.6-0.6-0.9C138,65.3,137.6,65.1,137.2,64.9L137.2,64.9z"/>
<path d="M128.5,62.9c0,1.6,0,3,0,4.5C128,66.7,127.9,63.7,128.5,62.9z"/>
<path d="M137.3,64.9c-0.7-0.2-0.7-0.8-0.5-1.3c0.1-0.3,0.5-0.7,0.9-0.7c0.7-0.1,1.5-0.1,2,0.8c-0.8-0.2-1.4-0.5-1.9-0.4
	C136.7,63.5,137.4,64.4,137.3,64.9C137.2,64.9,137.3,64.9,137.3,64.9z"/>
<path d="M143.2,66.4c0.2,0.1,0.5,0.3,0.7,0.4c1,0.7,1.8,0.6,2.6-0.2c0.2-0.2,0.4-0.4,0.8-0.7c-0.4,1.2-1.1,1.7-2,1.8
	C144.5,67.8,143.6,67.2,143.2,66.4C143.2,66.4,143.2,66.4,143.2,66.4z"/>
<path d="M178.4,63.2c-0.4,1-0.9,2.1-1.3,3.1c-0.1,0-0.2-0.1-0.3-0.1c0.4-1.1,0.8-2.1,1.3-3.2C178.2,63.1,178.3,63.2,178.4,63.2z"/>
<path d="M174.9,63c0.4,1,0.8,2.1,1.2,3.1c-0.1,0-0.2,0.1-0.3,0.1c-0.4-1-0.8-2.1-1.3-3.1C174.7,63.1,174.8,63.1,174.9,63z"/>
</svg>
