<?xml version="1.0" standalone="no"?>
<!DOCTYPE svg PUBLIC "-//W3C//DTD SVG 20010904//EN"
 "http://www.w3.org/TR/2001/REC-SVG-20010904/DTD/svg10.dtd">
<svg version="1.0" xmlns="http://www.w3.org/2000/svg"
 width="1280.000000pt" height="1280.000000pt" viewBox="0 0 1280.000000 1280.000000"
 preserveAspectRatio="xMidYMid meet">
<metadata>
Created by potrace 1.15, written by Peter Selinger 2001-2017
</metadata>
<g transform="translate(0.000000,1280.000000) scale(0.100000,-0.100000)"
fill="#000000" stroke="none">
<path d="M4274 12282 c-26 -18 -44 -125 -55 -322 -6 -113 -13 -207 -15 -209
-6 -7 -3 194 4 284 10 115 2 170 -23 170 -13 0 -26 -13 -39 -40 -27 -57 -66
-257 -66 -340 0 -38 -7 -92 -15 -119 -8 -27 -15 -75 -15 -107 0 -32 -4 -60 -9
-63 -17 -11 -70 45 -82 85 -7 21 -27 57 -46 78 -41 49 -141 107 -156 92 -15
-15 162 -365 236 -465 101 -138 135 -203 158 -306 28 -132 39 -426 32 -880 -5
-316 -3 -401 12 -540 24 -232 18 -1112 -10 -1260 -22 -120 -22 -279 0 -410 23
-135 18 -308 -8 -335 -10 -10 -16 -26 -14 -36 6 -23 -55 -79 -86 -79 -12 0
-49 15 -82 34 -74 41 -91 76 -74 159 6 28 13 62 15 73 3 16 10 21 28 19 19 -2
23 1 19 16 -3 11 -14 24 -24 30 -11 5 -19 14 -19 20 0 6 5 7 12 3 64 -40 -252
265 -348 335 -63 46 -156 89 -231 107 -75 18 -223 14 -281 -6 -18 -7 -35 -10
-38 -7 -3 3 13 11 35 18 23 7 39 14 37 17 -18 18 -239 -98 -302 -159 -17 -16
-34 -26 -39 -22 -4 5 -5 3 -2 -3 3 -6 -5 -21 -19 -33 -33 -29 -71 -112 -85
-185 -5 -31 -21 -72 -34 -91 -13 -19 -26 -56 -30 -83 -9 -73 -9 -180 1 -194 6
-7 20 -40 33 -73 35 -94 52 -125 112 -200 71 -89 115 -127 192 -167 58 -29 70
-31 197 -36 103 -3 159 0 232 13 116 21 157 17 312 -24 189 -50 305 -123 306
-192 1 -13 7 -35 15 -49 29 -51 9 -293 -36 -435 -50 -159 -60 -227 -69 -485
-5 -135 -12 -254 -14 -265 -3 -11 -31 -135 -61 -275 -85 -390 -104 -464 -158
-605 -78 -205 -121 -363 -166 -605 -124 -674 -132 -700 -267 -911 -81 -128
-124 -201 -124 -214 0 -7 -18 -36 -40 -64 -37 -47 -138 -229 -227 -409 -36
-73 -38 -108 -3 -62 10 14 22 21 26 18 4 -4 -13 -29 -37 -55 -267 -294 -415
-433 -649 -609 -175 -132 -239 -184 -325 -265 -59 -56 -295 -223 -366 -260
-20 -10 -69 -25 -107 -34 -72 -17 -152 -61 -221 -124 -18 -17 -40 -31 -47 -31
-19 0 -29 -47 -16 -75 23 -49 135 -57 240 -16 31 13 54 16 63 10 22 -13 118
-11 180 5 31 8 110 42 177 74 113 56 126 60 216 67 69 5 120 3 189 -9 114 -19
258 -20 310 -2 54 20 73 41 98 105 19 51 20 62 9 117 -16 83 -15 146 3 180 22
41 156 170 267 255 52 41 271 191 485 334 482 321 526 361 662 590 23 39 92
138 153 220 116 156 130 169 375 362 61 48 153 123 205 168 52 44 166 137 253
205 87 68 215 172 284 231 118 101 135 111 267 169 78 34 175 81 216 103 137
74 314 200 417 298 60 57 129 112 170 134 99 55 143 94 212 188 56 77 66 85
121 105 33 11 84 40 114 62 l55 42 29 -21 c16 -11 85 -78 152 -148 148 -155
228 -228 430 -397 160 -133 277 -249 551 -541 87 -93 231 -237 319 -320 200
-187 308 -311 393 -451 103 -171 234 -302 501 -498 128 -95 440 -353 543 -450
81 -75 183 -201 183 -226 0 -11 -7 -45 -15 -77 -29 -109 -14 -207 37 -255 33
-31 82 -47 178 -58 36 -4 73 -11 82 -15 10 -4 43 -45 74 -92 64 -98 114 -148
164 -164 19 -7 59 -26 89 -42 63 -36 138 -42 168 -14 12 10 27 14 41 10 17 -4
31 3 56 27 31 31 33 37 31 90 -1 31 -8 65 -15 77 -8 11 -54 47 -104 79 -145
94 -256 218 -367 410 -55 95 -100 154 -205 264 -39 41 -111 136 -159 210 -222
341 -470 669 -705 935 -63 72 -158 180 -210 240 -51 61 -114 133 -139 161 -25
28 -59 72 -74 97 -15 25 -54 75 -86 110 -32 35 -82 107 -111 158 -66 117 -301
480 -411 634 -242 339 -485 602 -831 896 -102 87 -202 178 -220 201 -53 65
-98 135 -98 150 0 14 -55 92 -93 133 -10 11 -48 63 -85 117 -237 343 -467 602
-677 762 -49 38 -115 93 -145 121 -114 108 -241 191 -515 335 -66 35 -165 94
-220 131 -55 36 -143 92 -195 124 -179 109 -307 223 -390 351 -74 114 -80 141
-80 395 0 269 -27 616 -75 949 -9 64 -17 209 -19 370 -5 312 -18 417 -100 787
-81 363 -103 562 -72 649 7 22 19 71 26 109 7 39 24 106 38 149 24 76 24 86
19 255 -6 178 -22 281 -45 289 -6 2 -15 -5 -18 -15 -3 -10 -10 -26 -15 -35 -5
-10 -9 -64 -10 -120 0 -57 -4 -121 -8 -143 -5 -28 -8 -1 -8 90 -1 211 -16 337
-45 372 -14 17 -28 7 -28 -21 0 -12 -5 -27 -10 -32 -6 -6 -15 -46 -20 -90 l-9
-79 5 93 c7 135 -19 247 -52 224z m487 -6146 c37 -35 79 -62 116 -76 53 -20
69 -22 173 -15 181 11 380 7 421 -10 9 -3 25 -24 34 -46 10 -22 29 -54 42 -72
31 -41 104 -293 108 -372 3 -45 18 -102 35 -131 10 -17 21 -45 24 -61 14 -64
7 -70 -306 -233 -161 -84 -329 -177 -373 -208 -155 -108 -434 -408 -625 -672
-219 -302 -345 -463 -401 -512 -34 -29 -101 -107 -151 -173 -86 -116 -306
-373 -319 -374 -4 -1 -3 16 3 37 5 20 13 60 18 87 11 73 67 214 181 461 228
494 316 743 355 1007 8 56 26 145 40 197 42 155 113 424 155 585 110 421 190
565 346 621 57 20 60 19 124 -40z"/>
<path d="M3148 8303 c7 -3 16 -2 19 1 4 3 -2 6 -13 5 -11 0 -14 -3 -6 -6z"/>
</g>
</svg>
